<?xml version="1.0" encoding="iso-8859-1"?>
<!-- Uploaded to: SVG Repo, www.svgrepo.com, Generator: SVG Repo Mixer Tools -->
<svg fill="#ffffff" height="800px" width="800px" version="1.1" id="Capa_1" xmlns="http://www.w3.org/2000/svg" xmlns:xlink="http://www.w3.org/1999/xlink" 
	 viewBox="0 0 489.051 489.051" xml:space="preserve">
<g>
	<path d="M62.85,489l35.8-2.4c7.5-0.5,13.7-5.2,16.4-11.5l157.1,6.8c17.5,1.8,33.9-0.3,49.3-8.3l4.5-2.4l118.7-69.5
		c5.8-3.4,10-9.3,10.2-15.9c0.3-8-4.3-16.8-15.7-17.6c-8-0.6-24.7,8.4-29.2,10.7c-16.2,8.2-38.7,21-53.6,31.2
		c-1,0.7-2.4,1.6-3.4,2.3c-6.7,4.3-13.7,7.2-21.5,8.8c-43,9.2-105.7,10.2-105.7,10.2l-3.6,0.2c-2.8,0.1-5.2-1.8-5.6-4.4
		c-0.5-2.9,1.7-5.6,4.8-5.9l93.2-8.9c10.2-1.1,18.4-10.7,17.3-21.5s-11.1-18.7-21.3-17.6l-82.9-1c-5.6-0.1-14.7-1.5-20.1-3.1
		c-53.5-15.6-83.6-1-99.6,5.8c-3.6-5.9-10.3-9.8-17.9-9.3l-35.8,2.4c-11.9,0.8-20.9,10.7-20,22.2l5.7,79.4
		C40.65,481.1,50.95,489.8,62.85,489z M75.95,446.7c6.7,0,12.2,5.3,12.2,11.7c0,6.5-5.5,11.7-12.2,11.7s-12.2-5.3-12.2-11.7
		S69.25,446.7,75.95,446.7z M350.85,395.6c0.2-2.2,0.2-4.4-0.1-6.6c-0.3-2.8-0.9-5.5-1.8-8.1c0.1-0.2,0.1-0.3,0.2-0.5
		c12.5-6.8,37.1-18.7,50.4-24c6.7-2.7,13.3-2.5,19.4,1.6c-4.8,1.7-9.2,3.8-13.5,6c-14,7.1-38.8,20.5-51,29
		C353.35,393.9,352.15,394.7,350.85,395.6z M349.65,364.2l-6,3.3c-0.6,0.3-1.1,0.7-1.6,1.1c-2.7-3.1-5.8-5.8-9.3-8
		c8.2-4.3,26.6-10.3,34.9-13.6c6.6-2.6,13.1-2.5,19.2,1.5C377.05,352.7,358.35,359.3,349.65,364.2z M159.05,148.1h8.6
		c12.5,27.6,37.5,48.3,67.8,54.8v41.6h-23.8c-7.3,0-13.3,5.9-13.3,13.3v17.4h-20.3v62.2h155.5v-62.2h-20.3v-17.4
		c0-7.3-5.9-13.3-13.3-13.3h-23.8v-41.6c30.3-6.5,55.3-27.2,67.8-54.8h8.6c36.5,0,66.3-29.7,66.3-66.3V31h-66.3V0h-193.5v31h-66.2
		v50.9C92.85,118.3,122.55,148.1,159.05,148.1z M352.75,108.2V64.5h32.7v17.3c0,18-14.7,32.7-32.7,32.7h-0.2
		C352.65,112.4,352.75,110.3,352.75,108.2z M282.85,278.2v33.3h-53.8v-33.3H282.85z M288.05,65.6l11-0.8l4.1-10.2
		c0.8-1.9,3.5-1.9,4.3,0l4.1,10.2l11,0.8c2.1,0.2,2.9,2.7,1.3,4.1l-8.4,7.1l2.6,10.7c0.5,2-1.7,3.6-3.5,2.5l-9.3-5.8l-9.3,5.8
		c-1.8,1.1-3.9-0.5-3.5-2.5l2.6-10.7l-8.4-7.1C285.15,68.3,286.05,65.7,288.05,65.6z M282.75,96.6l4.1,10.2l11,0.8
		c2.1,0.2,2.9,2.7,1.3,4.1l-8.4,7.1l2.6,10.7c0.5,2-1.7,3.6-3.5,2.5l-9.3-5.8l-9.3,5.8c-1.8,1.1-4-0.5-3.5-2.5l2.6-10.7l-8.4-7.1
		c-1.6-1.3-0.7-3.9,1.3-4.1l11-0.8l4.1-10.2C279.25,94.6,281.95,94.6,282.75,96.6z M238.65,65.6l11-0.8l4.1-10.2
		c0.8-1.9,3.5-1.9,4.3,0l4.1,10.2l11,0.8c2.1,0.2,2.9,2.7,1.3,4.1l-8.4,7.1l2.6,10.7c0.5,2-1.7,3.6-3.5,2.5l-9.3-5.8l-9.3,5.8
		c-1.8,1.1-3.9-0.5-3.5-2.5l2.6-10.7l-8.4-7.1C235.75,68.3,236.65,65.7,238.65,65.6z M233.35,96.6l4.1,10.2l11,0.8
		c2.1,0.2,2.9,2.7,1.3,4.1l-8.4,7.1l2.6,10.7c0.5,2-1.7,3.6-3.5,2.5l-9.3-5.8l-9.3,5.8c-1.8,1.1-3.9-0.5-3.5-2.5l2.6-10.7l-8.4-7.1
		c-1.6-1.3-0.7-3.9,1.3-4.1l11-0.8l4.1-10.2C229.85,94.6,232.65,94.6,233.35,96.6z M189.35,65.6l11-0.8l4.1-10.2
		c0.8-1.9,3.5-1.9,4.3,0l4.1,10.2l11,0.8c2.1,0.2,2.9,2.7,1.3,4.1l-8.4,7.1l2.6,10.7c0.5,2-1.7,3.6-3.5,2.5l-9.3-5.8l-9.3,5.8
		c-1.8,1.1-3.9-0.5-3.5-2.5l2.6-10.7l-8.4-7.1C186.45,68.3,187.25,65.7,189.35,65.6z M126.35,64.5h32.7v43.7c0,2.1,0.1,4.2,0.2,6.3
		h-0.2c-18,0-32.7-14.7-32.7-32.7V64.5z"/>
</g>
</svg>
