<svg xmlns="http://www.w3.org/2000/svg" viewBox="0 0 1000 300" width="100%" height="100%" style="background:transparent;">
  <defs>
    <linearGradient id="traceGradient" x1="0%" y1="0%" x2="100%" y2="0%">
      <stop offset="0%" stop-color="#1f293d" stop-opacity="0"/>
      <stop offset="10%" stop-color="#cbd5e1" stop-opacity="0.3"/>
      <stop offset="90%" stop-color="#cbd5e1" stop-opacity="0.1"/>
      <stop offset="100%" stop-color="#1f293d" stop-opacity="0"/>
    </linearGradient>
  </defs>

  <g stroke="rgba(255,255,255,0.015)" stroke-width="0.5">
    <line x1="0" y1="50" x2="1000" y2="50" />
    <line x1="0" y1="100" x2="1000" y2="100" />
    <line x1="0" y1="150" x2="1000" y2="150" stroke-dasharray="10 10" />
    <line x1="0" y1="200" x2="1000" y2="200" />
    <line x1="0" y1="250" x2="1000" y2="250" />
  </g>

  <g stroke="url(#traceGradient)" stroke-width="1.5" fill="none" stroke-linecap="round">
    <path d="M 50 150 L 150 50 L 300 50 L 350 100 L 500 100" />
    <path d="M 120 250 L 200 170 L 400 170 L 450 220 L 600 220" />
    <path d="M 650 150 L 750 50 L 900 50 L 950 100" />
    <path d="M 720 250 L 800 170 L 950 170" />
    <path d="M 350 100 L 350 170" stroke-dasharray="5 5" opacity="0.3"/>
  </g>

  <g fill="#3b82f6" opacity="0.7">
    <circle cx="50" cy="150" r="3" />
    <circle cx="300" cy="50" r="3" />
    <circle cx="500" cy="100" r="3.5" />
    <circle cx="120" cy="250" r="3" />
    <circle cx="400" cy="170" r="3" />
    <circle cx="600" cy="220" r="3.5" />
    <circle cx="650" cy="150" r="3" />
    <circle cx="900" cy="50" r="3.1" />
    <circle cx="950" cy="100" r="3" />
    <circle cx="720" cy="250" r="3" />
    <rect x="795" y="165" width="10" height="10" rx="1" transform="rotate(45, 800, 170)"/>
  </g>
</svg>
